<?xml version="1.0" encoding="UTF-8"?><svg id="Calque_1" xmlns="http://www.w3.org/2000/svg" viewBox="0 0 374.46 374.47"><defs><style>.cls-1{fill:#355c82;}</style></defs><path class="cls-1" d="m187.23,0C83.83,0,0,83.83,0,187.24s83.83,187.23,187.23,187.23,187.23-83.83,187.23-187.23S290.64,0,187.23,0Zm0,345.44c-87.37,0-158.2-70.83-158.2-158.2S99.86,29.03,187.23,29.03s158.21,70.83,158.21,158.21-70.83,158.2-158.21,158.2Z"/><rect class="cls-1" x="172.47" y="212.85" width="29.36" height="29.36"/><polygon class="cls-1" points="325.3 170.11 283.42 256.02 253.2 256.02 187.23 121.76 122.4 256.02 92.18 256.02 49.01 170.54 84.84 170.54 107.29 217.17 172.47 84.2 204.42 84.2 267.88 217.17 291.19 170.11 325.3 170.11"/><rect class="cls-1" x="172.47" y="212.85" width="29.36" height="29.36"/><polygon class="cls-1" points="325.3 170.11 283.42 256.02 253.2 256.02 187.23 121.76 122.4 256.02 92.18 256.02 49.01 170.54 84.84 170.54 107.29 217.17 172.47 84.2 204.42 84.2 267.88 217.17 291.19 170.11 325.3 170.11"/><rect class="cls-1" x="172.47" y="212.85" width="29.36" height="29.36"/><polygon class="cls-1" points="325.3 170.11 283.42 256.02 253.2 256.02 187.23 121.76 122.4 256.02 92.18 256.02 49.01 170.54 84.84 170.54 107.29 217.17 172.47 84.2 204.42 84.2 267.88 217.17 291.19 170.11 325.3 170.11"/></svg>